# xmcd CD database file
#
# Track frame offsets:
#	150
#	14350
#	27116
#	42212
#	56016
#	69431
#	84904
#	99908
#	115644
#	125993
#	138956
#
# Disc length: 2324 seconds
#
# Revision: 0
# Processed by: cddbd v1.5.2PL0 Copyright (c) Steve Scherf et al.
# Submitted via: CDex 1.51
#
DISCID=8709120b
DTITLE=The Jamestown Union - The Jamestown Union
DYEAR=2006
DGENRE=Country
TTITLE0=It's All Me
TTITLE1=Let In Let Out
TTITLE2=Turning It All Around
TTITLE3=Another Day
TTITLE4=Early Rain
TTITLE5=Ghosts
TTITLE6=Please Release Me
TTITLE7=When I'm Down
TTITLE8=Country Girl
TTITLE9=Make a Deal
TTITLE10=Oh My Lord
EXTD=YEAR: 2006
EXTT0=
EXTT1=
EXTT2=
EXTT3=
EXTT4=
EXTT5=
EXTT6=
EXTT7=
EXTT8=
EXTT9=
EXTT10=
PLAYORDER=
